<svg xmlns="http://www.w3.org/2000/svg" width="192" height="192" viewBox="0 0 192 192">
  <rect width="192" height="192" rx="32" fill="#059669"/>
  <path d="M96 48c-8 0-14.5 2-19.5 6s-7.5 9.5-7.5 16.5c0 5 1.3 9.3 4 13s6.7 7 12 10c-8 2-14.3 5.8-19 11.5S58 117 58 125c0 4.5 1 8.5 3 12s4.7 6 8 8 7 3.5 11 4.5 8.5 1.5 13.5 1.5h5c5 0 9.5-.5 13.5-1.5s7.7-2.5 11-4.5 5.8-4.7 7.8-8 3-7.5 3-12c0-8-2.5-14.3-7.5-19S114 96 106 94c5.3-3 9.3-6.3 12-10s4-8 4-13c0-7-2.5-12.5-7.5-16.5S104 48 96 48z" fill="white"/>
</svg>
